<svg xmlns="http://www.w3.org/2000/svg" width="96" height="29" fill="none" viewBox="0 0 96 29">
  <g filter="url(#a)" style="mix-blend-mode:screen">
    <mask id="b" width="92" height="25" x="2" y="-2" fill="#000" maskUnits="userSpaceOnUse">
      <path fill="#fff" d="M2-2h92v25H2z"/>
      <path d="M10.26 21V3h-6V0h18v3h-6v18h-6Zm17.16 0v-3h-3v-3h3v-3h12V9h-12V6h15v3h3v12h-18Zm3-3h9v-3h-9v3Zm17.16 3V6h18v3h3v12h-6V9h-9v12h-6Zm32.16 0v-3h-3v-3h-3v-3h-3V0h6v9h3v3h3V9h3V0h6v12h-3v3h-3v3h-3v3h-3Z"/>
    </mask>
    <path fill="#2245C5" d="M10.26 21V3h-6V0h18v3h-6v18h-6Zm17.16 0v-3h-3v-3h3v-3h12V9h-12V6h15v3h3v12h-18Zm3-3h9v-3h-9v3Zm17.16 3V6h18v3h3v12h-6V9h-9v12h-6Zm32.16 0v-3h-3v-3h-3v-3h-3V0h6v9h3v3h3V9h3V0h6v12h-3v3h-3v3h-3v3h-3Z"/>
    <path fill="#0D1A24" d="M10.26 21h-2v2h2v-2Zm0-18h2V1h-2v2Zm-6 0h-2v2h2V3Zm0-3v-2h-2v2h2Zm18 0h2v-2h-2v2Zm0 3v2h2V3h-2Zm-6 0V1h-2v2h2Zm0 18v2h2v-2h-2Zm-4 0V3h-4v18h4Zm-2-20h-6v4h6V1Zm-4 2V0h-4v3h4Zm-2-1h18v-4h-18v4Zm16-2v3h4V0h-4Zm2 1h-6v4h6V1Zm-8 2v18h4V3h-4Zm2 16h-6v4h6v-4Zm11.16 2h-2v2h2v-2Zm0-3h2v-2h-2v2Zm-3 0h-2v2h2v-2Zm0-3v-2h-2v2h2Zm3 0v2h2v-2h-2Zm0-3v-2h-2v2h2Zm12 0v2h2v-2h-2Zm0-3h2V7h-2v2Zm-12 0h-2v2h2V9Zm0-3V4h-2v2h2Zm15 0h2V4h-2v2Zm0 3h-2v2h2V9Zm3 0h2V7h-2v2Zm0 12v2h2v-2h-2Zm-15-3h-2v2h2v-2Zm9 0v2h2v-2h-2Zm0-3h2v-2h-2v2Zm-9 0v-2h-2v2h2Zm-1 6v-3h-4v3h4Zm-2-5h-3v4h3v-4Zm-1 2v-3h-4v3h4Zm-2-1h3v-4h-3v4Zm5-2v-3h-4v3h4Zm-2-1h12v-4h-12v4Zm14-2V9h-4v3h4Zm-2-5h-12v4h12V7Zm-10 2V6h-4v3h4Zm-2-1h15V4h-15v4Zm13-2v3h4V6h-4Zm2 5h3V7h-3v4Zm1-2v12h4V9h-4Zm2 10h-18v4h18v-4Zm-15 1h9v-4h-9v4Zm11-2v-3h-4v3h4Zm-2-5h-9v4h9v-4Zm-11 2v3h4v-3h-4Zm19.16 6h-2v2h2v-2Zm0-15V4h-2v2h2Zm18 0h2V4h-2v2Zm0 3h-2v2h2V9Zm3 0h2V7h-2v2Zm0 12v2h2v-2h-2Zm-6 0h-2v2h2v-2Zm0-12h2V7h-2v2Zm-9 0V7h-2v2h2Zm0 12v2h2v-2h-2Zm-4 0V6h-4v15h4Zm-2-13h18V4h-18v4Zm16-2v3h4V6h-4Zm2 5h3V7h-3v4Zm1-2v12h4V9h-4Zm2 10h-6v4h6v-4Zm-4 2V9h-4v12h4Zm-2-14h-9v4h9V7Zm-11 2v12h4V9h-4Zm2 10h-6v4h6v-4Zm26.16 2h-2v2h2v-2Zm0-3h2v-2h-2v2Zm-3 0h-2v2h2v-2Zm0-3h2v-2h-2v2Zm-3 0h-2v2h2v-2Zm0-3h2v-2h-2v2Zm-3 0h-2v2h2v-2Zm0-12v-2h-2v2h2Zm6 0h2v-2h-2v2Zm0 9h-2v2h2V9Zm3 0h2V7h-2v2Zm0 3h-2v2h2v-2Zm3 0v2h2v-2h-2Zm0-3V7h-2v2h2Zm3 0v2h2V9h-2Zm0-9v-2h-2v2h2Zm6 0h2v-2h-2v2Zm0 12v2h2v-2h-2Zm-3 0v-2h-2v2h2Zm0 3v2h2v-2h-2Zm-3 0v-2h-2v2h2Zm0 3v2h2v-2h-2Zm-3 0v-2h-2v2h2Zm0 3v2h2v-2h-2Zm-1 0v-3h-4v3h4Zm-2-5h-3v4h3v-4Zm-1 2v-3h-4v3h4Zm-2-5h-3v4h3v-4Zm-1 2v-3h-4v3h4Zm-2-5h-3v4h3v-4Zm-1 2V0h-4v12h4Zm-2-10h6v-4h-6v4Zm4-2v9h4V0h-4Zm2 11h3V7h-3v4Zm1-2v3h4V9h-4Zm2 5h3v-4h-3v4Zm5-2V9h-4v3h4Zm-2-1h3V7h-3v4Zm5-2V0h-4v9h4Zm-2-7h6v-4h-6v4Zm4-2v12h4V0h-4Zm2 10h-3v4h3v-4Zm-5 2v3h4v-3h-4Zm2 1h-3v4h3v-4Zm-5 2v3h4v-3h-4Zm2 1h-3v4h3v-4Zm-5 2v3h4v-3h-4Zm2 1h-3v4h3v-4Z" mask="url(#b)"/>
  </g>
  <defs>
    <filter id="a" width="95.48" height="29" x=".26" y="0" color-interpolation-filters="sRGB" filterUnits="userSpaceOnUse">
      <feFlood flood-opacity="0" result="BackgroundImageFix"/>
      <feColorMatrix in="SourceAlpha" result="hardAlpha" values="0 0 0 0 0 0 0 0 0 0 0 0 0 0 0 0 0 0 127 0"/>
      <feOffset dx="2" dy="2"/>
      <feComposite in2="hardAlpha" operator="out"/>
      <feColorMatrix values="0 0 0 0 0.117647 0 0 0 0 0.203922 0 0 0 0 0.270588 0 0 0 1 0"/>
      <feBlend in2="BackgroundImageFix" result="effect1_dropShadow_208_84"/>
      <feColorMatrix in="SourceAlpha" result="hardAlpha" values="0 0 0 0 0 0 0 0 0 0 0 0 0 0 0 0 0 0 127 0"/>
      <feOffset dy="4"/>
      <feGaussianBlur stdDeviation="2"/>
      <feComposite in2="hardAlpha" operator="out"/>
      <feColorMatrix values="0 0 0 0 0 0 0 0 0 0 0 0 0 0 0 0 0 0 0.25 0"/>
      <feBlend in2="effect1_dropShadow_208_84" result="effect2_dropShadow_208_84"/>
      <feBlend in="SourceGraphic" in2="effect2_dropShadow_208_84" result="shape"/>
    </filter>
  </defs>
</svg>
